<?xml version="1.0" encoding="utf-8"?>
<!-- Generator: Adobe Illustrator 23.1.0, SVG Export Plug-In . SVG Version: 6.00 Build 0)  -->
<svg version="1.1" id="Слой_1" xmlns="http://www.w3.org/2000/svg" xmlns:xlink="http://www.w3.org/1999/xlink" x="0px" y="0px"
	 viewBox="0 0 50 50" style="enable-background:new 0 0 50 50;" xml:space="preserve">
<style type="text/css">
	.st0{fill:#FFFFFF;}
</style>
<g>
	<path class="st0" d="M25,0C11.19,0,0,11.19,0,25c0,13.81,11.19,25,25,25s25-11.19,25-25C50,11.19,38.81,0,25,0z M25,46.67
		C13.05,46.67,3.33,36.95,3.33,25S13.05,3.33,25,3.33S46.67,13.05,46.67,25S36.95,46.67,25,46.67z"/>
	<polygon class="st0" points="21.18,19.51 18.82,17.15 10.98,25 18.82,32.85 21.18,30.49 17.36,26.67 38.33,26.67 38.33,23.33 
		17.36,23.33 	"/>
</g>
</svg>
